<svg id="Layer_2" data-name="Layer 2" xmlns="http://www.w3.org/2000/svg" viewBox="0 0 2880 1440"><defs><style>.cls-1,.cls-5,.cls-6{fill:#1d4ed7;}.cls-2{fill:#f8880f;}.cls-3{fill:#fefefe;}.cls-4{fill:#fff;}.cls-5{font-size:476.46px;letter-spacing:-0.02em;}.cls-5,.cls-6{font-family:Exo2-SemiBold, "Exo 2";font-weight:600;}.cls-6{font-size:448.23px;}.cls-7{letter-spacing:-0.01em;}.cls-8{letter-spacing:0em;}.cls-9{letter-spacing:0em;}.cls-10{letter-spacing:-0.01em;}</style></defs><title>aArtboard 3</title><path class="cls-1" d="M419.8,736.09q0-42.35,0-84.7a38.78,38.78,0,0,1,1.07-9.9c2.6-9.88,9.6-15.47,20.52-16.37,2.12-.18,4.25-.29,6.37-.29q49.9,0,99.81,0c4.54,0,9.09.22,13.42,1.79,9.58,3.47,13.38,11,14.13,20.55.64,8.14.21,16.3.28,24.46.06,7.23,0,14.47.06,21.7A195.7,195.7,0,0,1,556.16,706c-20.06,11.65-41.58,19.69-63.86,25.9-15.25,4.25-30.62,7.61-46.54,7.73C436.93,739.72,428.22,739,419.8,736.09Z"/><path class="cls-1" d="M575.16,711.5c.53.62.27,1.36.28,2q0,39.36,0,78.73a47.72,47.72,0,0,1-1.06,11,19.28,19.28,0,0,1-9.83,13,43.29,43.29,0,0,1-8,3.44c-3.22,1-4.59,2.81-4.81,6.19-.19,2.75.17,5.52-.34,8.27-1.13,6-5.8,10-11.56,9.74s-10.23-4.8-10.69-11c-.23-3,.21-6.1-.27-9.13-.45-2.82-1.11-3.54-4-3.7-2.19-.13-4.39,0-6.59,0L473.48,820H472c-4.4.13-5.82,1.59-5.75,6,.05,3.33.15,6.66-.82,9.91-1.53,5.16-5.69,8.11-11.19,7.93a10.58,10.58,0,0,1-10.12-8.71,40.73,40.73,0,0,1-.5-8.47c0-5-.74-5.91-5.64-7.18-11.23-2.91-17.68-10.51-18-22.26-.35-12.26-.1-24.54-.16-36.81,0-2.14,1.24-1,1.88-.76,12.85,4.57,26.15,5.62,39.62,4.88a176.68,176.68,0,0,0,40.47-7.29c23.85-7.06,45.32-18.44,63.62-35.47,1.76-1.65,3.42-3.4,5.09-5.14.31-.33,1-.63.51-1.33l0,0c.86.29,1-.32,1.22-.92A15.66,15.66,0,0,1,575.16,711.5Z"/><path class="cls-2" d="M575.16,711.5a15.66,15.66,0,0,0-3,2.92c-.59.06-1.09.24-1.22.92l0,0c-2.55,1.4-4.59,3.49-6.9,5.21-19.11,14.23-40.44,23.77-63.3,30.12-16.8,4.66-33.79,7.92-51.34,7.2-16.06-.65-31.27-4.22-44.71-13.53C399.87,741,395.84,736.78,394,731c-2.23-7,0-13.3,3.9-19.07,5.28-7.77,12.58-13.33,20.54-18.41.2,1.19-.6,1.69-1.07,2.31-4.45,5.79-9.06,11.46-12.13,18.16a22.39,22.39,0,0,0-2.05,7.32,9.64,9.64,0,0,0,4,8.86,34.25,34.25,0,0,0,12.57,5.94c8.42,2.86,17.13,3.63,26,3.57,15.92-.12,31.29-3.48,46.54-7.73,22.28-6.21,43.8-14.25,63.86-25.9a195.7,195.7,0,0,0,19.34-12.7,193.57,193.57,0,0,0,18-14.55c1.92-1.68,3.81-3.4,5.69-5.13s1.64-3.23-.78-4-4.85-1.55-7.26-2.38c-1.42-.49-2.59-1.25-2.41-3s1.55-2.16,3-2.3c3.46-.33,6.91-.71,10.38-1A3.13,3.13,0,0,0,605,659c1.92-3.8,3.82-7.6,5.88-11.31.79-1.42.24-1.75-1-2.17-6.8-2.41-13.59-4.87-20.37-7.33-2.68-1-4.09-2.62-4-4.62.07-2.48,2.06-4.27,4.86-4.27,10,0,20,0,30,.1a4.63,4.63,0,0,0,4.13-2c3.27-4.24,6.95-8,11.79-10.54a12.23,12.23,0,0,1,3.6-1.25,5.66,5.66,0,0,1,6.86,5.21,16.86,16.86,0,0,1-1.48,8.07,47,47,0,0,1-5.81,10.35,3.78,3.78,0,0,0-.6,3.73c3,9.68,5.86,19.38,8.78,29.07.72,2.39.15,4.15-1.72,5.38-2.06,1.36-4.29.86-6.06-1.51q-6.63-8.85-13.14-17.79c-1-1.33-1.53-1.56-2.79-.26-2.76,2.86-5.64,5.6-8.61,8.24A3.61,3.61,0,0,0,614,670c.71,3.18,1.3,6.38,1.91,9.58.31,1.6.44,3.24-1.44,4s-2.72-.58-3.59-1.86c-1.43-2.12-2.87-4.22-4.32-6.32-1.22-1.77-1.61-1.77-2.73.15-2.75,4.72-5.68,9.31-8.89,13.74a139.85,139.85,0,0,1-18.76,21.11C575.8,710.74,575.49,711.13,575.16,711.5Z"/><path class="cls-1" d="M497.8,582.27h25.74a17.91,17.91,0,0,1,4,.45,5.56,5.56,0,0,1,4.63,5.13,36.12,36.12,0,0,1,.34,4.87c.07,7.52.08,15,.12,22.55,0,4.2-1.2,5.45-5.41,5.47a25.93,25.93,0,0,1-3.18-.07c-3.62-.39-4.56-1.42-4.55-5,0-4.12.08-8.23.14-12.34,0-.5,0-1,0-1.49-.1-5.06-1.62-6.63-6.69-6.52-10.29.21-20.56.09-30.85,0a13.69,13.69,0,0,0-2.12.1c-3,.41-4.41,1.88-4.44,5,0,4.89,0,9.79.08,14.68.05,4.33-1.12,5.58-5.42,5.75-6.87.26-7.8-.64-7.75-7.45.06-7.45.13-14.89.17-22.34,0-6.37,2.32-8.67,8.78-8.69C480.22,582.25,489,582.27,497.8,582.27Z"/><path class="cls-3" d="M570.94,715.34c.13-.68.63-.86,1.22-.92C572,715,571.8,715.63,570.94,715.34Z"/><path class="cls-4" d="M2287.46,844.29c91.49-1.1,93.78,5.31,94.23-12.54,0-27.81,0-54.19,0-81.69-1-56.44,6.38-58.38-20.81-57.5-1.69,0-1.73-.36-1.81-2.33-.71-18.13,1.8-36.13-3.71-53.16-10.47-29.38-38.84-49.66-68.92-48.33-33-.11-59.8,22.63-68.37,52.22-4.41,16.52-1.71,33-2.55,50.55-.34,1.61-1.91.89-4.37,1.06-18.37-1-18.2,3.13-17.94,18.38,0,16.63,0,32.76,0,49.32,1.26,82.68-6.92,84.87,18.08,84.06C2237,844.23,2262,844.29,2287.46,844.29Z"/><path class="cls-1" d="M2287.46,844.29c-45.93-.76-85.08,1.74-89.65-1.39-8-4.28-3.52-20.84-4.6-27.15,0-18.86,0-37.51,0-56.36,1.13-69.16-6.85-67.14,21-66.86,1.14-.09,1.24-.44,1.34-1.78.66-17.43-1.89-34.17,2.68-50.48,8.79-29.53,35.91-51.7,68.18-51.53,30.28-1.37,58.44,19.1,68.92,48.33,5.64,17.56,2.9,35.15,3.75,54.08.1,1.33.5,1.35,2.26,1.42,15.51-.25,21.08-1,20.32,16.21v42.16c-1.2,90.77,6,94-14.85,93.35Zm53.43-151.88c-.34-32.36,3.93-52.82-19.22-73.12-28.39-23.44-68.28-12-82.81,18.05-7.62,16.31-4.75,37.06-4.69,54.77C2269.11,693.4,2305.5,692.35,2340.89,692.41Zm-33.17,65.23c-1.66-31.71-46.92-24.51-40.09,5.15a21.41,21.41,0,0,0,9.09,12c3.42,8.82-1.61,20.08,2.28,29.61,2.44,4.64,7.87,6.27,12.88,3.81,9.32-4.54,3.69-24.5,5.27-31.82C2303,769.3,2307.68,767.27,2307.72,757.64Z"/><path class="cls-4" d="M2307.72,757.64c-.46,11.5-5.76,12.27-10.57,18.72-.52,8.48.45,16-.33,24.95-1.33,8.66-12.41,10.5-16.92,4.46-4.62-7.65-1.33-21.36-2.21-28.49a3.28,3.28,0,0,0-1.49-2.92,20.72,20.72,0,0,1-9.22-19.67C2271.65,728.46,2307.58,732.73,2307.72,757.64Z"/><text class="cls-5" transform="translate(112 844.79)">V</text><text class="cls-6" transform="translate(650.54 844.79)"><tspan class="cls-7">y</tspan><tspan x="243.83" y="0">a</tspan><tspan class="cls-8" x="495.29" y="0">g</tspan><tspan class="cls-9" x="748.99" y="0">eGu</tspan></text><text class="cls-6" transform="translate(2382.57 842.86)"><tspan class="cls-10">r</tspan><tspan x="183.32" y="0">d</tspan></text></svg>